<svg width="490" height="65" viewBox="0 0 490 65" fill="none" xmlns="http://www.w3.org/2000/svg">
<g clip-path="url(#clip0_694_5291)">
<path d="M217.809 48.42C217.809 45.0515 220.542 42.3186 223.906 42.3186C227.271 42.3186 230 45.0515 230 48.42C230 51.7884 227.271 54.5197 223.906 54.5197C220.542 54.5197 217.809 51.7884 217.809 48.42Z" fill="#86BC24"/>
<path d="M23.3963 32.2618C23.3963 28.3973 22.6503 25.5301 21.1581 23.6621C19.6639 21.7962 17.4011 20.8641 14.3581 20.8641H11.1216V44.4964H13.5981C16.9776 44.4964 19.4541 43.4933 21.0312 41.4808C22.6062 39.472 23.3963 36.3982 23.3963 32.2618ZM34.9393 31.859C34.9393 38.8998 33.0485 44.3251 29.2666 48.133C25.4848 51.9428 20.1686 53.8477 13.3156 53.8477H0V11.6591H14.2454C20.8528 11.6591 25.954 13.3912 29.5488 16.8532C33.142 20.317 34.9393 25.3162 34.9393 31.859ZM71.8238 53.8474H82.4193V11.4819H71.8238V53.8474ZM97.3044 38.0448C97.3044 40.7459 97.657 42.8062 98.3612 44.222C99.0667 45.6398 100.248 46.3477 101.91 46.3477C103.554 46.3477 104.716 45.6398 105.394 44.222C106.071 42.8062 106.408 40.7459 106.408 38.0448C106.408 35.3577 106.066 33.331 105.38 31.963C104.692 30.5909 103.519 29.9043 101.855 29.9043C100.229 29.9043 99.0666 30.5877 98.3609 31.9469C97.6573 33.3081 97.3044 35.34 97.3044 38.0448ZM117.192 38.0448C117.192 43.191 115.845 47.2058 113.142 50.0834C110.442 52.9628 106.662 54.4035 101.802 54.4035C97.1422 54.4035 93.4326 52.9311 90.6791 49.9862C87.9222 47.0416 86.5445 43.0622 86.5445 38.045C86.5445 32.9144 87.8942 28.9279 90.5963 26.0857C93.2984 23.2432 97.0874 21.8222 101.966 21.8222C104.981 21.8222 107.648 22.4807 109.958 23.796C112.271 25.1109 114.056 26.995 115.31 29.449C116.566 31.8993 117.192 34.7665 117.192 38.0448ZM121.4 53.8474H131.998V22.3784H121.4V53.8474ZM121.4 18.5717H131.997V11.4803H121.4V18.5717ZM153.468 45.821C154.898 45.821 156.602 45.4571 158.59 44.7352V52.6533C157.161 53.2817 155.803 53.7318 154.512 53.9984C153.221 54.2686 151.705 54.4027 149.971 54.4027C146.414 54.4027 143.849 53.5077 142.274 51.7209C140.706 49.9345 139.919 47.191 139.919 43.4889V30.516H136.208V22.3812H139.919V14.3446L150.598 12.4858V22.381H157.359V30.5163H150.598V42.7649C150.598 44.8023 151.556 45.821 153.468 45.821ZM177.994 45.821C179.424 45.821 181.128 45.4571 183.116 44.7352V52.6533C181.689 53.2817 180.329 53.7318 179.038 53.9984C177.745 54.2686 176.235 54.4027 174.498 54.4027C170.94 54.4027 168.376 53.5077 166.804 51.7209C165.232 49.9345 164.446 47.191 164.446 43.4889V30.516H160.733V22.3812H164.446V14.223L175.122 12.4858V22.381H181.887V30.5163H175.122V42.7649C175.122 44.8023 176.08 45.821 177.994 45.821ZM196.488 34.2111C196.632 32.4882 197.125 31.2257 197.964 30.4191C198.807 29.614 199.848 29.2115 201.093 29.2115C202.451 29.2115 203.531 29.6634 204.332 30.5742C205.138 31.4799 205.558 32.693 205.591 34.2111H196.488ZM211.431 25.5322C208.912 23.0608 205.339 21.823 200.716 21.823C195.856 21.823 192.117 23.2443 189.495 26.0865C186.876 28.929 185.566 33.0069 185.566 38.3213C185.566 43.4673 186.982 47.4361 189.808 50.2219C192.635 53.0077 196.606 54.4025 201.719 54.4025C204.175 54.4025 206.288 54.2349 208.059 53.9012C209.819 53.5711 211.523 52.9742 213.176 52.1127L211.548 45.0208C210.347 45.512 209.204 45.8896 208.124 46.1383C206.565 46.5005 204.854 46.6822 202.991 46.6822C200.949 46.6822 199.336 46.1827 198.155 45.1835C196.973 44.1825 196.343 42.8018 196.271 41.0435H215.211V36.2114C215.211 31.563 213.952 28.002 211.431 25.5322ZM49.0026 34.2111C49.1472 32.4882 49.6395 31.2257 50.4789 30.4191C51.3202 29.614 52.3627 29.2115 53.61 29.2115C54.9646 29.2115 56.0442 29.6634 56.8467 30.5742C57.6526 31.4799 58.0707 32.693 58.1078 34.2111H49.0026ZM63.948 25.5322C61.4274 23.0608 57.8554 21.823 53.2307 21.823C48.3693 21.823 44.6318 23.2443 42.0122 26.0865C39.3929 28.929 38.0807 33.0069 38.0807 38.3213C38.0807 43.4673 39.4952 47.4361 42.3246 50.2219C45.1503 53.0077 49.1208 54.4025 54.2344 54.4025C56.6896 54.4025 58.8029 54.2349 60.5736 53.9012C62.334 53.5711 64.0381 52.9742 65.6925 52.1127L64.0627 45.0208C62.8614 45.512 61.7184 45.8896 60.6406 46.1383C59.0781 46.5005 57.3689 46.6822 55.5059 46.6822C53.4651 46.6822 51.8514 46.1827 50.6695 45.1835C49.4858 44.1825 48.858 42.8018 48.7858 41.0435H67.7263V36.2114C67.7263 31.563 66.4671 28.002 63.948 25.5322Z" fill="black"/>
</g>
<path d="M326.204 41.8041C326.204 45.1917 324.976 47.8334 322.521 49.7291C320.065 51.6248 316.733 52.5727 312.523 52.5727C307.963 52.5727 304.455 51.9846 302 50.8086V46.4906C303.579 47.1576 305.297 47.6842 307.156 48.0704C309.016 48.4565 310.857 48.6496 312.681 48.6496C315.663 48.6496 317.908 48.0879 319.416 46.9646C320.925 45.8236 321.679 44.2439 321.679 42.2253C321.679 40.8913 321.407 39.803 320.863 38.9605C320.337 38.1004 319.442 37.3105 318.18 36.5909C316.934 35.8712 315.031 35.055 312.471 34.1423C308.893 32.8609 306.332 31.3426 304.789 29.5873C303.263 27.8321 302.5 25.5414 302.5 22.7154C302.5 19.749 303.614 17.3882 305.841 15.6329C308.068 13.8776 311.015 13 314.681 13C318.504 13 322.021 13.7021 325.23 15.1063L323.836 19.003C320.661 17.669 317.575 17.002 314.575 17.002C312.208 17.002 310.357 17.5111 309.024 18.5291C307.691 19.5472 307.025 20.9602 307.025 22.7681C307.025 24.1021 307.27 25.1992 307.762 26.0592C308.253 26.9018 309.077 27.6829 310.235 28.4025C311.41 29.1046 313.199 29.8857 315.601 30.7458C319.635 32.1851 322.407 33.7298 323.915 35.3797C325.441 37.0297 326.204 39.1711 326.204 41.8041Z" fill="black"/>
<path d="M346.83 52.5727C344.953 52.5727 343.234 52.2304 341.673 51.5458C340.13 50.8437 338.832 49.773 337.779 48.3337H337.464C337.674 50.0187 337.779 51.616 337.779 53.1256V65H333.412V23.1894H336.964L337.569 27.1387H337.779C338.902 25.559 340.209 24.4181 341.699 23.7159C343.19 23.0138 344.9 22.6628 346.83 22.6628C350.653 22.6628 353.6 23.9705 355.669 26.5858C357.756 29.2012 358.8 32.8697 358.8 37.5914C358.8 42.3306 357.739 46.0167 355.617 48.6496C353.512 51.265 350.583 52.5727 346.83 52.5727ZM346.198 26.3752C343.252 26.3752 341.121 27.1914 339.805 28.8238C338.49 30.4562 337.815 33.054 337.779 36.6172V37.5914C337.779 41.6461 338.455 44.5511 339.805 46.3063C341.156 48.0441 343.322 48.9129 346.303 48.9129C348.794 48.9129 350.741 47.9036 352.144 45.8851C353.565 43.8665 354.275 41.0844 354.275 37.5387C354.275 33.9404 353.565 31.1846 352.144 29.2714C350.741 27.3406 348.759 26.3752 346.198 26.3752Z" fill="black"/>
<path d="M384.188 52.0461L383.319 47.9387H383.109C381.671 49.7467 380.232 50.9754 378.794 51.6248C377.374 52.2567 375.593 52.5727 373.454 52.5727C370.595 52.5727 368.35 51.8354 366.719 50.361C365.105 48.8866 364.298 46.789 364.298 44.0684C364.298 38.2408 368.955 35.1867 378.268 34.9058L383.161 34.7478V32.9575C383.161 30.6932 382.67 29.0257 381.688 27.9549C380.724 26.8667 379.171 26.3225 377.032 26.3225C374.629 26.3225 371.91 27.0597 368.876 28.5342L367.534 25.1904C368.955 24.4181 370.507 23.8125 372.191 23.3737C373.892 22.9349 375.593 22.7154 377.295 22.7154C380.732 22.7154 383.275 23.479 384.924 25.0061C386.59 26.5332 387.423 28.9818 387.423 32.3519V52.0461H384.188ZM374.322 48.9656C377.04 48.9656 379.171 48.2196 380.715 46.7276C382.276 45.2356 383.056 43.1468 383.056 40.4613V37.8547L378.689 38.039C375.216 38.1619 372.708 38.706 371.165 39.6714C369.639 40.6192 368.876 42.1024 368.876 44.121C368.876 45.7008 369.35 46.9031 370.297 47.7281C371.261 48.5531 372.603 48.9656 374.322 48.9656Z" fill="black"/>
<path d="M409.601 22.6628C410.882 22.6628 412.031 22.7681 413.048 22.9787L412.443 27.0334C411.25 26.7701 410.198 26.6385 409.286 26.6385C406.953 26.6385 404.954 27.5863 403.287 29.482C401.639 31.3777 400.814 33.7386 400.814 36.5646V52.0461H396.447V23.1894H400.051L400.551 28.5342H400.762C401.832 26.656 403.121 25.2079 404.629 24.1899C406.138 23.1718 407.795 22.6628 409.601 22.6628Z" fill="black"/>
<path d="M427.754 48.9656C428.526 48.9656 429.271 48.9129 429.99 48.8076C430.71 48.6847 431.28 48.5619 431.701 48.439V51.7828C431.227 52.011 430.525 52.1953 429.596 52.3357C428.684 52.4937 427.86 52.5727 427.123 52.5727C421.545 52.5727 418.757 49.6326 418.757 43.7524V26.5858H414.626V24.4795L418.757 22.6628L420.598 16.5018H423.124V23.1894H431.49V26.5858H423.124V43.5681C423.124 45.3058 423.536 46.6398 424.36 47.5701C425.185 48.5004 426.316 48.9656 427.754 48.9656Z" fill="black"/>
<path d="M455.22 52.0461L454.352 47.9387H454.142C452.703 49.7467 451.265 50.9754 449.827 51.6248C448.406 52.2567 446.626 52.5727 444.486 52.5727C441.628 52.5727 439.383 51.8354 437.751 50.361C436.138 48.8866 435.331 46.789 435.331 44.0684C435.331 38.2408 439.988 35.1867 449.301 34.9058L454.194 34.7478V32.9575C454.194 30.6932 453.703 29.0257 452.721 27.9549C451.756 26.8667 450.204 26.3225 448.064 26.3225C445.662 26.3225 442.943 27.0597 439.909 28.5342L438.567 25.1904C439.988 24.4181 441.54 23.8125 443.224 23.3737C444.925 22.9349 446.626 22.7154 448.327 22.7154C451.765 22.7154 454.308 23.479 455.957 25.0061C457.623 26.5332 458.456 28.9818 458.456 32.3519V52.0461H455.22ZM445.355 48.9656C448.073 48.9656 450.204 48.2196 451.748 46.7276C453.309 45.2356 454.089 43.1468 454.089 40.4613V37.8547L449.722 38.039C446.249 38.1619 443.741 38.706 442.198 39.6714C440.672 40.6192 439.909 42.1024 439.909 44.121C439.909 45.7008 440.382 46.9031 441.329 47.7281C442.294 48.5531 443.636 48.9656 445.355 48.9656Z" fill="black"/>
<path d="M474.425 37.2754L464.402 23.1894H469.374L476.977 34.2476L484.554 23.1894H489.474L479.45 37.2754L490 52.0461H485.054L476.977 40.3559L468.822 52.0461H463.876L474.425 37.2754Z" fill="black"/>
<line x1="266" y1="0.995895" x2="266" y2="62.0041" stroke="white" stroke-opacity="0.2"/>
<defs>
<clipPath id="clip0_694_5291">
<rect width="230" height="50" fill="white" transform="translate(0 8)"/>
</clipPath>
</defs>
</svg>
